<svg xmlns="http://www.w3.org/2000/svg" width="37" height="36" viewBox="0 0 37 36">
  <g id="返还保证金" transform="translate(-238 -239.412)">
    <rect id="矩形_73" data-name="矩形 73" width="32" height="36" rx="4" transform="translate(241 239.412)" fill="#fbf2df"/>
    <path id="路径_158" data-name="路径 158" d="M274,259.647a8.951,8.951,0,0,1-8.942,8.941h-4.329a.906.906,0,0,1-.783-.448.893.893,0,0,1-.127-.461.91.91,0,0,1,.91-.909h4.329a7.123,7.123,0,0,0,0-14.246h-24.52l1.343,1.505,2.471,2.77,1.342,1.5a.91.91,0,0,1-1.358,1.211l-2.422-2.715-3.384-3.793a2.082,2.082,0,0,1-.519-1.179,2.054,2.054,0,0,1-.01-.283,2.086,2.086,0,0,1,.529-1.32l3.464-3.883,2.342-2.626a.91.91,0,0,1,1.358,1.212l-1.261,1.414-3.9,4.365h24.52A8.951,8.951,0,0,1,274,259.647Z" transform="translate(0.5)" fill="#00d3ff" stroke="#00d3ff" stroke-width="1"/>
  </g>
</svg>
