<svg xmlns="http://www.w3.org/2000/svg" width="38.427" height="36.544" viewBox="0 0 38.427 36.544">
  <g id="申请条件" transform="translate(-259.12 -265.633)">
    <g id="路径_155" data-name="路径 155" fill="#fbf2df" stroke-miterlimit="10">
      <path d="M 269.9592590332031 295.2269897460938 C 269.6716918945313 295.2270202636719 269.3941650390625 295.1355895996094 269.1567077636719 294.962646484375 C 268.72900390625 294.6521606445313 268.5194396972656 294.1373596191406 268.6085510253906 293.6181945800781 L 269.95361328125 285.7729797363281 C 270.0372314453125 285.2962646484375 269.8788757324219 284.806396484375 269.5293884277344 284.46630859375 L 263.8299255371094 278.9118347167969 C 263.4527893066406 278.5439453125 263.3196105957031 278.0043334960938 263.4827575683594 277.5039672851563 C 263.6457214355469 277.0016784667969 264.070556640625 276.6434020996094 264.5918884277344 276.5675964355469 L 272.4688720703125 275.422607421875 C 272.9533081054688 275.3502502441406 273.3673095703125 275.0476379394531 273.5802001953125 274.6125793457031 L 277.1017150878906 267.4776000976563 C 277.3348083496094 267.0062561035156 277.80712890625 266.7130126953125 278.3340148925781 266.7130126953125 C 278.8609008789063 266.7130126953125 279.3331909179688 267.0062561035156 279.5666198730469 267.478271484375 L 283.0892639160156 274.6156005859375 C 283.3009643554688 275.0481567382813 283.7152709960938 275.3507995605469 284.1961364746094 275.4221801757813 L 292.0771789550781 276.5675964355469 C 292.598388671875 276.6434936523438 293.0232849121094 277.0017700195313 293.1858215332031 277.5026550292969 C 293.3486633300781 278.0039367675781 293.2152404785156 278.5438842773438 292.8377380371094 278.9121704101563 L 287.1380615234375 284.4668579101563 C 286.7939758300781 284.8016662597656 286.6344604492188 285.286865234375 286.7119140625 285.7641906738281 L 286.712646484375 285.7686462402344 L 286.7134094238281 285.7731018066406 L 288.0594177246094 293.6181030273438 C 288.1485595703125 294.1373901367188 287.939208984375 294.65234375 287.5130310058594 294.9621276855469 C 287.2745056152344 295.13525390625 286.9959716796875 295.2269897460938 286.7080078125 295.2269897460938 C 286.4844970703125 295.2269897460938 286.269287109375 295.1731262207031 286.068359375 295.06689453125 L 279.0202026367188 291.36279296875 C 278.8088989257813 291.2518310546875 278.5716247558594 291.1932373046875 278.333740234375 291.1932373046875 C 278.0947570800781 291.1932373046875 277.8571166992188 291.2523193359375 277.6463317871094 291.3640747070313 L 270.602783203125 295.0657958984375 C 270.4021911621094 295.1712951660156 270.1798095703125 295.2269897460938 269.9592590332031 295.2269897460938 Z" stroke="none"/>
      <path d="M 278.3340148925781 267.7130126953125 C 278.1858520507813 267.7130126953125 278.0632934570313 267.7890014648438 277.9984436035156 267.920166015625 L 274.4754638671875 275.0581665039063 L 274.4754638671875 275.0581665039063 C 274.1170959472656 275.7854309082031 273.4241943359375 276.2909851074219 272.6205749511719 276.4110412597656 L 272.6166381835938 276.4116516113281 L 272.6127014160156 276.4122314453125 L 264.7357788085938 277.5571899414063 C 264.5875854492188 277.5787353515625 264.4805297851563 277.6689453125 264.4335021972656 277.81396484375 C 264.3872985839844 277.9556884765625 264.4210510253906 278.0914611816406 264.5278625488281 278.1956787109375 L 270.2267761230469 283.7496032714844 C 270.8125305175781 284.319580078125 271.0784606933594 285.1401977539063 270.9386291503906 285.9454345703125 L 269.5941467285156 293.7873840332031 C 269.56884765625 293.934814453125 269.6216735839844 294.0644836425781 269.7454223632813 294.154296875 C 269.8116455078125 294.2025451660156 269.8836059570313 294.2269897460938 269.9592895507813 294.2269897460938 C 270.01904296875 294.2269897460938 270.0787963867188 294.2115173339844 270.1375732421875 294.1805725097656 L 277.1800842285156 290.4794311523438 C 277.5340881347656 290.2921752929688 277.9328308105469 290.1932373046875 278.333740234375 290.1932373046875 C 278.73291015625 290.1932373046875 279.1309509277344 290.2914428710938 279.4854125976563 290.4776000976563 L 286.5357055664063 294.1828308105469 C 286.5911254882813 294.2121276855469 286.6491088867188 294.2269897460938 286.7080078125 294.2269897460938 C 286.7835388183594 294.2269897460938 286.8589477539063 294.2012329101563 286.925048828125 294.1532592773438 C 287.0446166992188 294.0663452148438 287.0988464355469 293.9329833984375 287.0738220214844 293.7872314453125 L 285.7278137207031 285.9422302246094 L 285.7262878417969 285.9333190917969 L 285.7248229980469 285.9243774414063 C 285.5951538085938 285.1252746582031 285.8629760742188 284.3122863769531 286.4401245117188 283.7507019042969 L 292.1394653320313 278.1963195800781 C 292.2457580566406 278.0926513671875 292.280517578125 277.9525146484375 292.2346496582031 277.8113098144531 C 292.1891479492188 277.6710815429688 292.0791625976563 277.5784301757813 291.933349609375 277.5572204589844 L 284.0553283691406 276.4122314453125 L 284.0523071289063 276.4117736816406 L 284.04931640625 276.4113464355469 C 283.2449340820313 276.2919311523438 282.5513000488281 275.7862854003906 282.1925354003906 275.0581665039063 L 278.6702270507813 267.9215393066406 C 278.6047058105469 267.7890014648438 278.4821472167969 267.7130126953125 278.3340148925781 267.7130126953125 M 278.3340148925781 265.7130126953125 C 279.2439880371094 265.7130126953125 280.0599975585938 266.2200012207031 280.4630126953125 267.0350036621094 L 283.9859924316406 274.1730041503906 C 284.0549926757813 274.3139953613281 284.18798828125 274.4100036621094 284.3429870605469 274.4330139160156 L 292.2210083007813 275.5780029296875 C 293.1210021972656 275.7090148925781 293.8559875488281 276.3280029296875 294.1369934082031 277.1940002441406 C 294.4179992675781 278.0589904785156 294.18798828125 278.9920043945313 293.5360107421875 279.6279907226563 L 287.8359985351563 285.1830139160156 C 287.7239990234375 285.2919921875 287.6740112304688 285.4500122070313 287.6990051269531 285.60400390625 L 289.0450134277344 293.4490051269531 C 289.1990051269531 294.3460083007813 288.8370056152344 295.2359924316406 288.1010131835938 295.77099609375 C 287.6849975585938 296.072998046875 287.197998046875 296.2269897460938 286.7080078125 296.2269897460938 C 286.3299865722656 296.2269897460938 285.9509887695313 296.135986328125 285.6010131835938 295.9509887695313 L 278.5549926757813 292.2479858398438 C 278.4855041503906 292.2114868164063 278.4094848632813 292.1932373046875 278.333740234375 292.1932373046875 C 278.2579956054688 292.1932373046875 278.1824951171875 292.2114868164063 278.114013671875 292.2479858398438 L 271.0679931640625 295.9509887695313 C 270.7169799804688 296.1356506347656 270.3370666503906 296.2269897460938 269.9592895507813 296.2269897460938 C 269.4696044921875 296.2269897460938 268.9834594726563 296.0735778808594 268.5679931640625 295.77099609375 C 267.8309936523438 295.2359924316406 267.468994140625 294.3460083007813 267.6229858398438 293.4490051269531 L 268.9679870605469 285.60400390625 C 268.9949951171875 285.4500122070313 268.9440002441406 285.2919921875 268.8320007324219 285.1830139160156 L 263.1319885253906 279.6279907226563 C 262.4800109863281 278.9920043945313 262.25 278.0589904785156 262.5320129394531 277.1940002441406 C 262.81298828125 276.3280029296875 263.5469970703125 275.7090148925781 264.447998046875 275.5780029296875 L 272.3250122070313 274.4330139160156 C 272.47900390625 274.4100036621094 272.6130065917969 274.3139953613281 272.6820068359375 274.1730041503906 L 276.2049865722656 267.0350036621094 C 276.6080017089844 266.2200012207031 277.4240112304688 265.7130126953125 278.3340148925781 265.7130126953125 Z" stroke="none" fill="#ff5d94"/>
    </g>
    <line id="直线_80" data-name="直线 80" x2="2.125" y2="2.924" transform="translate(267.235 267.03)" fill="none" stroke="#ff5d94" stroke-linecap="round" stroke-miterlimit="10" stroke-width="2"/>
    <line id="直线_81" data-name="直线 81" x1="2.124" y2="2.924" transform="translate(287.303 267.035)" fill="none" stroke="#ff5d94" stroke-linecap="round" stroke-miterlimit="10" stroke-width="2"/>
    <line id="直线_82" data-name="直线 82" x2="3.437" y2="1.117" transform="translate(292.85 287.02)" fill="none" stroke="#ff5d94" stroke-linecap="round" stroke-miterlimit="10" stroke-width="2"/>
    <line id="直线_83" data-name="直线 83" y2="3.614" transform="translate(278.334 297.562)" fill="none" stroke="#ff5d94" stroke-linecap="round" stroke-miterlimit="10" stroke-width="2"/>
    <line id="直线_84" data-name="直线 84" x1="3.437" y2="1.118" transform="translate(260.381 287.018)" fill="none" stroke="#ff5d94" stroke-linecap="round" stroke-miterlimit="10" stroke-width="2"/>
  </g>
</svg>
