<svg xmlns="http://www.w3.org/2000/svg" width="223.414" height="241.021" viewBox="0 0 223.414 241.021">
  <g id="共享者图片" transform="translate(480.103 -910.038)">
    <g id="组_34" data-name="组 34">
      <path id="路径_140" data-name="路径 140" d="M-368.9,945.1a16.532,16.532,0,0,0,16.532-16.532A16.532,16.532,0,0,0-368.9,912.038a16.532,16.532,0,0,0-16.532,16.532A16.532,16.532,0,0,0-368.9,945.1Z" fill="none" stroke="#000" stroke-linecap="round" stroke-miterlimit="10" stroke-width="4"/>
      <path id="路径_141" data-name="路径 141" d="M-333.708,987.084a1.835,1.835,0,0,1-1.24,1.682l-31.463,18.8a6.932,6.932,0,0,1-5.023,0l-31.427-18.79a1.852,1.852,0,0,1-1.242-1.683V966.96a17.414,17.414,0,0,1,16.532-16.419,2.8,2.8,0,0,1,2.133.656l15.1,13.393a2.243,2.243,0,0,0,2.933,0l15.1-13.393a2.834,2.834,0,0,1,2.154-.656,20.161,20.161,0,0,1,7.711,2.4A17.92,17.92,0,0,1-338.36,956a15.409,15.409,0,0,1,4.671,10.951Z" fill="none" stroke="#000" stroke-linecap="round" stroke-miterlimit="10" stroke-width="4"/>
    </g>
    <g id="组_34-2" data-name="组 34">
      <path id="路径_140-2" data-name="路径 140" d="M-442.9,1086.1a16.532,16.532,0,0,0,16.532-16.532,16.532,16.532,0,0,0-16.532-16.531,16.532,16.532,0,0,0-16.532,16.532A16.532,16.532,0,0,0-442.9,1086.1Z" fill="none" stroke="#000" stroke-linecap="round" stroke-miterlimit="10" stroke-width="4"/>
      <path id="路径_141-2" data-name="路径 141" d="M-407.708,1128.084a1.835,1.835,0,0,1-1.24,1.682l-31.463,18.8a6.932,6.932,0,0,1-5.023,0l-31.427-18.79a1.852,1.852,0,0,1-1.242-1.683V1107.96a17.414,17.414,0,0,1,16.532-16.419,2.8,2.8,0,0,1,2.133.656l15.1,13.393a2.242,2.242,0,0,0,2.933,0l15.1-13.393a2.834,2.834,0,0,1,2.154-.656,20.162,20.162,0,0,1,7.711,2.4A17.921,17.921,0,0,1-412.36,1097a15.409,15.409,0,0,1,4.671,10.951Z" fill="none" stroke="#000" stroke-linecap="round" stroke-miterlimit="10" stroke-width="4"/>
    </g>
    <g id="组_34-3" data-name="组 34">
      <path id="路径_140-3" data-name="路径 140" d="M-293.9,1086.1a16.532,16.532,0,0,0,16.532-16.532,16.532,16.532,0,0,0-16.532-16.531,16.532,16.532,0,0,0-16.532,16.532A16.532,16.532,0,0,0-293.9,1086.1Z" fill="none" stroke="#000" stroke-linecap="round" stroke-miterlimit="10" stroke-width="4"/>
      <path id="路径_141-3" data-name="路径 141" d="M-258.708,1128.084a1.835,1.835,0,0,1-1.24,1.682l-31.463,18.8a6.932,6.932,0,0,1-5.023,0l-31.427-18.79a1.852,1.852,0,0,1-1.242-1.683V1107.96a17.414,17.414,0,0,1,16.532-16.419,2.8,2.8,0,0,1,2.133.656l15.1,13.393a2.242,2.242,0,0,0,2.933,0l15.1-13.393a2.834,2.834,0,0,1,2.154-.656,20.162,20.162,0,0,1,7.711,2.4A17.921,17.921,0,0,1-263.36,1097a15.409,15.409,0,0,1,4.671,10.951Z" fill="none" stroke="#000" stroke-linecap="round" stroke-miterlimit="10" stroke-width="4"/>
    </g>
    <path id="路径_152" data-name="路径 152" d="M-399.046,1141.855A95.776,95.776,0,0,0-368,1147a89.332,89.332,0,0,0,30.867-5.363" fill="none" stroke="#6fbfee" stroke-linecap="round" stroke-miterlimit="10" stroke-width="4" stroke-dasharray="1 8"/>
    <path id="路径_153" data-name="路径 153" d="M-280.086,1043a89.9,89.9,0,0,0-32.386-56.028" fill="none" stroke="#6fbfee" stroke-linecap="round" stroke-miterlimit="10" stroke-width="4" stroke-dasharray="1 8"/>
    <path id="路径_154" data-name="路径 154" d="M-424.974,986.526A89.916,89.916,0,0,0-457.914,1043" fill="none" stroke="#6fbfee" stroke-linecap="round" stroke-miterlimit="10" stroke-width="4" stroke-dasharray="1 8"/>
  </g>
</svg>
