<svg xmlns="http://www.w3.org/2000/svg" width="36.535" height="37.035" viewBox="0 0 36.535 37.035">
  <g id="提现订单-选中" transform="translate(-174 16.035)">
    <path id="矩形_58" data-name="矩形 58" d="M205-15V18a2.218,2.218,0,0,1-2.385,2h-25.23A2.218,2.218,0,0,1,175,18V-13a2.218,2.218,0,0,1,2.385-2H195" fill="none" stroke="#b79961" stroke-linecap="round" stroke-miterlimit="10" stroke-width="2"/>
    <path id="路径_115" data-name="路径 115" d="M191.007,1.2h-2.013a2.082,2.082,0,0,1-2.08-2.08,2.08,2.08,0,0,1,2.08-2.08h4.027a.943.943,0,0,0,.94-.94.94.94,0,0,0-.94-.94H190.94V-6.92a.94.94,0,0,0-.94-.94h0a.939.939,0,0,0-.94.938V-4.84h-.067a3.964,3.964,0,0,0-3.96,3.96,3.966,3.966,0,0,0,3.96,3.96h2.013a2.08,2.08,0,1,1,0,4.16h-4.027a.939.939,0,0,0-.94.938v0a.94.94,0,0,0,.94.94h2.081V11.2a.94.94,0,0,0,.94.94h0a.943.943,0,0,0,.94-.94V9.123h.067a3.962,3.962,0,0,0,0-7.923Z" fill="#b79961"/>
    <path id="路径_161" data-name="路径 161" d="M-1,4.536,3.536,0" transform="translate(201.464 -15.036)" fill="none" stroke="#b79961" stroke-linecap="round" stroke-width="2"/>
    <path id="路径_162" data-name="路径 162" d="M4.536,4.536,0,0" transform="translate(205 -15.036)" fill="none" stroke="#b79961" stroke-linecap="round" stroke-width="2"/>
  </g>
</svg>
