<svg xmlns="http://www.w3.org/2000/svg" xmlns:xlink="http://www.w3.org/1999/xlink" width="320" height="350" viewBox="0 0 320 350">
  <defs>
    <clipPath id="clip-path">
      <rect id="矩形_50" data-name="矩形 50" width="88.021" height="179.957" transform="translate(94.714 109.659)" fill="none"/>
    </clipPath>
  </defs>
  <g id="谷歌验证图片-彩色" transform="translate(-13.724 -188.392)">
    <path id="路径_125" data-name="路径 125" d="M256,330.639h0A230.9,230.9,0,0,0,406,114.376V56A56,56,0,0,1,350,0H256V330.639Z" transform="translate(-82.276 197.891)" fill="#f1f6ff"/>
    <g id="路径_124" data-name="路径 124" transform="translate(0 198.391)" fill="none" stroke-linecap="round" stroke-linejoin="round">
      <path d="M173.724,330h0a230.47,230.47,0,0,0,150-215.845V55.891A55.945,55.945,0,0,1,267.724,0h-188a55.945,55.945,0,0,1-56,55.891v58.263A230.471,230.471,0,0,0,173.724,330Z" stroke="none"/>
      <path d="M 173.7238159179688 330 C 263.9364013671875 296.318115234375 323.7236022949219 210.285400390625 323.7236022949219 114.1548461914063 L 323.7236022949219 55.89120101928711 C 292.7958068847656 55.89120101928711 267.7239685058594 30.86790084838867 267.7239685058594 0 L 173.7238159179688 0 L 79.72371673583984 0 C 79.72371673583984 30.86790084838867 54.65181732177734 55.89120101928711 23.7240161895752 55.89120101928711 L 23.7240161895752 114.1541976928711 C 23.7240161895752 210.285400390625 83.51121520996094 296.318115234375 173.7238159179688 330 M 173.7238159179688 340 C 172.5388946533203 340 171.3539733886719 339.7894592285156 170.2260589599609 339.3683471679688 C 76.61736297607422 304.41845703125 13.7240161895752 213.9118499755859 13.7240161895752 114.1541976928711 L 13.7240161895752 55.89120101928711 C 13.7240161895752 50.36835098266602 18.2011661529541 45.89120101928711 23.7240161895752 45.89120101928711 C 49.08831405639648 45.89120101928711 69.72371673583984 25.30450057983398 69.72371673583984 0 C 69.72371673583984 -5.522850036621094 74.20086669921875 -10 79.72371673583984 -10 L 173.7238159179688 -10 L 267.7239685058594 -10 C 273.246826171875 -10 277.7239685058594 -5.522850036621094 277.7239685058594 0 C 277.7239685058594 25.30450057983398 298.3593139648438 45.89120101928711 323.7236022949219 45.89120101928711 C 329.2464599609375 45.89120101928711 333.7236022949219 50.36835098266602 333.7236022949219 55.89120101928711 L 333.7236022949219 114.1548461914063 C 333.7236022949219 213.9120941162109 270.8302612304688 304.41845703125 177.2215728759766 339.3683471679688 C 176.0936584472656 339.7894592285156 174.9087371826172 340 173.7238159179688 340 Z" stroke="none" fill="#4184e5"/>
    </g>
    <g id="组_30" data-name="组 30" transform="translate(-141.012 147.254)">
      <path id="路径_126" data-name="路径 126" d="M262.627,218.414l-6.266,23.39-22.9.485a90.157,90.157,0,0,1-.663-84.041h0l20.388,3.738,8.931,20.265a53.712,53.712,0,0,0,.505,36.163Z" fill="#fbbb00"/>
      <path id="路径_127" data-name="路径 127" d="M401.162,182.825a89.963,89.963,0,0,1-32.083,87l-.005-.005-25.679-1.31L339.76,245.82a53.638,53.638,0,0,0,23.079-27.391H314.714v-35.6h86.448Z" fill="#518ef8"/>
      <path id="路径_128" data-name="路径 128" d="M369.074,269.818l.005.005a90.029,90.029,0,0,1-135.618-27.534l29.166-23.874A53.526,53.526,0,0,0,339.76,245.82Z" fill="#28b446"/>
      <path id="路径_129" data-name="路径 129" d="M370.182,130.358l-29.156,23.869a53.52,53.52,0,0,0-78.9,28.024l-29.319-24h0a90.019,90.019,0,0,1,137.384-27.89Z" fill="#f14336"/>
    </g>
    <g id="组_32" data-name="组 32" transform="translate(79.01 147.232)">
      <g id="组_31" data-name="组 31" clip-path="url(#clip-path)">
        <path id="路径_130" data-name="路径 130" d="M42.627,218.414,36.361,241.8l-22.9.485a90.157,90.157,0,0,1-.663-84.041H12.8l20.388,3.738,8.931,20.265a53.712,53.712,0,0,0,.5,36.163Z" fill="#fbbb00"/>
        <path id="路径_131" data-name="路径 131" d="M181.162,182.825a89.963,89.963,0,0,1-32.083,87l0-.005-25.679-1.31L119.76,245.82a53.638,53.638,0,0,0,23.079-27.391H94.714v-35.6h86.448Z" fill="#4184e5"/>
        <path id="路径_132" data-name="路径 132" d="M149.074,269.818l0,.005A90.029,90.029,0,0,1,13.461,242.289l29.166-23.874A53.526,53.526,0,0,0,119.76,245.82Z" fill="#20a83a"/>
        <path id="路径_133" data-name="路径 133" d="M150.182,130.358l-29.156,23.869a53.52,53.52,0,0,0-78.9,28.024l-29.319-24H12.8a90.019,90.019,0,0,1,137.384-27.89Z" fill="#e53530"/>
      </g>
    </g>
  </g>
</svg>
