<svg xmlns="http://www.w3.org/2000/svg" width="44" height="44" viewBox="0 0 44 44">
  <path id="谷歌验证码" d="M178.468,228.611v40a2,2,0,0,0,2,2h40a2,2,0,0,0,2-2v-40a2,2,0,0,0-2-2h-40A2,2,0,0,0,178.468,228.611Zm22.238,31.138a11.138,11.138,0,1,1,0-22.276,10.318,10.318,0,0,1,7.48,3.024l-3.024,2.864a6.131,6.131,0,0,0-4.456-1.752,7,7,0,0,0,0,14,6.112,6.112,0,0,0,6.366-4.774h-6.366v-3.82h10.5a7.1,7.1,0,0,1,.16,1.91C211.368,255.3,207.072,259.749,200.706,259.749Z" transform="translate(-178.468 -226.611)" fill="#83cf88"/>
</svg>
