<svg xmlns="http://www.w3.org/2000/svg" width="44" height="44" viewBox="0 0 44 44">
  <g id="安全密码" transform="translate(-263.949 -232.26)">
    <rect id="矩形_53" data-name="矩形 53" width="44" height="44" rx="2" transform="translate(263.949 232.26)" fill="#6fbfee"/>
    <path id="路径_144" data-name="路径 144" d="M294.949,251.26h-1.5v-1.384a7.5,7.5,0,1,0-15,0v1.384h-1.5a1.5,1.5,0,0,0-1.5,1.5v12a1.5,1.5,0,0,0,1.5,1.5h18a1.5,1.5,0,0,0,1.5-1.5v-12A1.5,1.5,0,0,0,294.949,251.26Zm-15-1.384a6,6,0,1,1,12,0v1.384h-12Zm15,14.884h-18v-12h18v12Z" fill="#fff" stroke="#fff" stroke-width="1"/>
    <line id="直线_57" data-name="直线 57" x2="5" transform="translate(283.449 258.76)" fill="none" stroke="#fff" stroke-linecap="round" stroke-width="4"/>
  </g>
</svg>
