<svg xmlns="http://www.w3.org/2000/svg" width="46.056" height="43.264" viewBox="0 0 46.056 43.264">
  <g id="已参与-选中" transform="translate(-76.905 -72.007)">
    <path id="路径_175" data-name="路径 175" d="M121.831,88.612a2.043,2.043,0,0,0-1.657-1.373l-12.715-1.811-5.695-11.3a2.062,2.062,0,0,0-3.671,0l-5.686,11.3L79.691,87.239a2.034,2.034,0,0,0-1.659,1.371,1.988,1.988,0,0,0,.523,2.064l9.2,8.793-2.166,12.418a2,2,0,0,0,.818,1.965,2.082,2.082,0,0,0,2.158.152l11.374-5.863L111.312,114a2.1,2.1,0,0,0,2.16-.152,2,2,0,0,0,.815-1.965l-2.169-12.418,9.2-8.793a2,2,0,0,0,.514-2.064" fill="none" stroke="#b79961" stroke-miterlimit="10" stroke-width="2"/>
  </g>
</svg>
