<svg xmlns="http://www.w3.org/2000/svg" width="46" height="40.672" viewBox="0 0 46 40.672">
  <g id="账单" transform="translate(1 0.999)">
    <path id="路径_85" data-name="路径 85" d="M199.677,225.413v38.008a1,1,0,0,0,1.554.832l3.906-2.6a1,1,0,0,1,1.108,0l4.906,3.264a1,1,0,0,0,1.108,0l4.906-3.264a1,1,0,0,1,1.108,0l4.906,3.264a1,1,0,0,0,1.108,0l4.906-3.264a1,1,0,0,1,1.108,0l3.906,2.6a1,1,0,0,0,1.554-.832V225.413" transform="translate(-195.719 -225.413)" fill="#67d4cd"/>
    <path id="路径_86" data-name="路径 86" d="M-1,0H43" transform="translate(1 0.001)" fill="none" stroke="#44bbb4" stroke-linecap="round" stroke-width="2"/>
    <path id="路径_89" data-name="路径 89" d="M0,0H8" transform="translate(14 9.591)" fill="none" stroke="#fff" stroke-linecap="round" stroke-width="2"/>
    <line id="直线_21" data-name="直线 21" x2="16" transform="translate(14 17.591)" fill="none" stroke="#fff" stroke-linecap="round" stroke-miterlimit="10" stroke-width="2"/>
    <line id="直线_22" data-name="直线 22" x2="16" transform="translate(14 25.591)" fill="none" stroke="#fff" stroke-linecap="round" stroke-miterlimit="10" stroke-width="2"/>
  </g>
</svg>
