<svg id="赏金猎人" xmlns="http://www.w3.org/2000/svg" width="44" height="44" viewBox="0 0 44 44">
  <rect id="矩形_45" data-name="矩形 45" width="44" height="44" rx="2" fill="#bac6d1"/>
  <g id="联合_1" data-name="联合 1" transform="translate(-18602.506 -16865.6)" fill="none" stroke-linejoin="round" stroke-miterlimit="10">
    <path d="M18629.4,16900.1a21.415,21.415,0,0,0-9.2,0,2.828,2.828,0,0,1-.9.1c-1.6,0-3.9-.9-3.3-3.5.7-3.2,3.7-3,4.5-7.3.7-3.8,3.6-4,4.2-4h.2c.6,0,3.5.2,4.2,4,.8,4.2,3.8,4.1,4.5,7.3.6,2.6-1.7,3.5-3.3,3.5A2.828,2.828,0,0,1,18629.4,16900.1Zm4-8.6c-1.8-.7-2.5-3.1-1.6-5.4a4.442,4.442,0,0,1,3.8-3,4.322,4.322,0,0,1,1.1.2c1.8.7,2.5,3.1,1.6,5.4a3.76,3.76,0,0,1-4.9,2.8Zm-22.5-2.8c-.9-2.3-.2-4.7,1.6-5.4a3.712,3.712,0,0,1,1.1-.2,4.438,4.438,0,0,1,3.8,3c.9,2.3.2,4.7-1.6,5.4a5.323,5.323,0,0,1-1.1.2A4.442,4.442,0,0,1,18610.9,16888.7Zm17.4-4.5c-1.9-.5-2.9-2.895-2.2-5.2a4.615,4.615,0,0,1,4-3.4,1.754,1.754,0,0,1,.7.1c1.7.5,2.9,2.9,2.2,5.2-.7,2-2.3,3.4-3.9,3.4A2.126,2.126,0,0,1,18628.3,16884.2Zm-11.9-3.3c-.7-2.3.3-4.7,2.1-5.2a2.256,2.256,0,0,1,.8-.1c1.6,0,3.2,1.4,3.8,3.4.7,2.3-.3,4.7-2.1,5.2-.3,0-.6.1-.8.1C18618.6,16884.3,18617,16882.9,18616.4,16880.9Z" stroke="none"/>
    <path d="M 18630.302734375 16898.19921875 C 18630.91015625 16898.19921875 18631.46484375 16897.974609375 18631.62890625 16897.767578125 C 18631.734375 16897.634765625 18631.69921875 16897.359375 18631.650390625 16897.150390625 C 18631.6484375 16897.142578125 18631.6484375 16897.13671875 18631.646484375 16897.12890625 C 18631.4609375 16896.287109375 18631.0546875 16895.869140625 18630.22265625 16895.078125 C 18629.15234375 16894.060546875 18627.685546875 16892.666015625 18627.134765625 16889.7734375 C 18627.134765625 16889.76953125 18627.1328125 16889.765625 18627.1328125 16889.76171875 C 18626.9453125 16888.748046875 18626.544921875 16888.052734375 18625.943359375 16887.697265625 C 18625.455078125 16887.408203125 18624.955078125 16887.400390625 18624.900390625 16887.400390625 L 18624.80078125 16887.400390625 L 18624.69921875 16887.400390625 C 18624.64453125 16887.400390625 18624.142578125 16887.408203125 18623.654296875 16887.697265625 C 18623.052734375 16888.052734375 18622.65234375 16888.748046875 18622.46484375 16889.765625 C 18621.91015625 16892.73828125 18620.427734375 16894.126953125 18619.34375 16895.140625 C 18618.53125 16895.90234375 18618.1328125 16896.306640625 18617.951171875 16897.12890625 C 18617.94921875 16897.13671875 18617.94921875 16897.142578125 18617.947265625 16897.150390625 C 18617.8984375 16897.357421875 18617.86328125 16897.6328125 18617.96875 16897.765625 C 18618.134765625 16897.974609375 18618.69140625 16898.19921875 18619.30078125 16898.19921875 C 18619.40625 16898.19921875 18619.546875 16898.19921875 18619.603515625 16898.19140625 C 18619.62890625 16898.18359375 18619.65625 16898.17578125 18619.681640625 16898.169921875 C 18621.35546875 16897.720703125 18624.396484375 16897.61328125 18624.73828125 16897.603515625 C 18624.759765625 16897.6015625 18624.779296875 16897.6015625 18624.80078125 16897.6015625 C 18624.822265625 16897.6015625 18624.84375 16897.6015625 18624.86328125 16897.603515625 C 18625.205078125 16897.61328125 18628.240234375 16897.720703125 18629.91796875 16898.169921875 C 18629.943359375 16898.17578125 18629.970703125 16898.18359375 18629.99609375 16898.19140625 C 18630.0546875 16898.19921875 18630.197265625 16898.19921875 18630.302734375 16898.19921875 M 18634.498046875 16889.701171875 C 18635.12109375 16889.701171875 18636.015625 16889.0546875 18636.4375 16887.96875 C 18636.748046875 16887.17578125 18636.775390625 16886.34375 18636.51171875 16885.744140625 C 18636.396484375 16885.482421875 18636.2421875 16885.298828125 18636.048828125 16885.197265625 C 18636.021484375 16885.19140625 18635.994140625 16885.18359375 18635.96875 16885.177734375 C 18635.751953125 16885.12109375 18635.658203125 16885.09765625 18635.59765625 16885.09765625 C 18634.9921875 16885.09765625 18634.080078125 16885.759765625 18633.662109375 16886.828125 C 18633.349609375 16887.626953125 18633.322265625 16888.4609375 18633.587890625 16889.0625 C 18633.701171875 16889.3203125 18633.853515625 16889.5 18634.04296875 16889.599609375 C 18634.072265625 16889.607421875 18634.1015625 16889.615234375 18634.130859375 16889.623046875 C 18634.326171875 16889.671875 18634.4375 16889.701171875 18634.498046875 16889.701171875 M 18614.677734375 16889.701171875 C 18614.771484375 16889.69140625 18614.98828125 16889.638671875 18615.16015625 16889.59765625 C 18615.34765625 16889.498046875 18615.498046875 16889.318359375 18615.611328125 16889.060546875 C 18615.875 16888.458984375 18615.84765625 16887.625 18615.537109375 16886.828125 C 18615.115234375 16885.744140625 18614.220703125 16885.09765625 18613.59765625 16885.09765625 C 18613.5546875 16885.09765625 18613.4296875 16885.10546875 18613.1796875 16885.181640625 C 18612.97265625 16885.27734375 18612.806640625 16885.46484375 18612.685546875 16885.740234375 C 18612.421875 16886.341796875 18612.451171875 16887.173828125 18612.76171875 16887.970703125 C 18613.173828125 16889.029296875 18614.072265625 16889.6875 18614.677734375 16889.701171875 M 18629.099609375 16882.30078125 C 18629.728515625 16882.30078125 18630.642578125 16881.546875 18631.099609375 16880.28125 C 18631.2890625 16879.615234375 18631.21484375 16878.87109375 18630.896484375 16878.28125 C 18630.673828125 16877.8671875 18630.40234375 16877.6640625 18630.236328125 16877.615234375 C 18630.21875 16877.611328125 18630.203125 16877.60546875 18630.185546875 16877.599609375 C 18630.158203125 16877.599609375 18630.126953125 16877.599609375 18630.1015625 16877.599609375 C 18629.4921875 16877.599609375 18628.3984375 16878.302734375 18628.017578125 16879.57421875 C 18628.015625 16879.576171875 18628.015625 16879.580078125 18628.015625 16879.58203125 C 18627.787109375 16880.33203125 18627.841796875 16881.12109375 18628.1640625 16881.6953125 C 18628.283203125 16881.908203125 18628.4921875 16882.1796875 18628.806640625 16882.26171875 C 18628.84765625 16882.2734375 18628.890625 16882.28515625 18628.931640625 16882.298828125 C 18628.974609375 16882.30078125 18629.04296875 16882.30078125 18629.099609375 16882.30078125 M 18620.12109375 16882.296875 C 18620.130859375 16882.294921875 18620.138671875 16882.29296875 18620.1484375 16882.291015625 C 18620.263671875 16882.26953125 18620.412109375 16882.2421875 18620.5859375 16882.22265625 C 18620.802734375 16882.107421875 18620.95703125 16881.875 18621.03515625 16881.732421875 C 18621.35546875 16881.150390625 18621.412109375 16880.326171875 18621.185546875 16879.58203125 C 18621.185546875 16879.580078125 18621.18359375 16879.576171875 18621.18359375 16879.57421875 C 18620.818359375 16878.353515625 18619.921875 16877.599609375 18619.30078125 16877.599609375 C 18619.234375 16877.599609375 18619.15234375 16877.599609375 18619.111328125 16877.6015625 C 18619.087890625 16877.609375 18619.0625 16877.6171875 18619.037109375 16877.623046875 C 18618.75390625 16877.703125 18618.556640625 16877.998046875 18618.46484375 16878.166015625 C 18618.14453125 16878.75 18618.087890625 16879.57421875 18618.314453125 16880.318359375 C 18618.314453125 16880.3203125 18618.31640625 16880.32421875 18618.31640625 16880.328125 C 18618.666015625 16881.49609375 18619.50390625 16882.23828125 18620.12109375 16882.296875 M 18630.302734375 16900.19921875 C 18629.998046875 16900.19921875 18629.69921875 16900.19921875 18629.400390625 16900.1015625 C 18627.8984375 16899.69921875 18624.80078125 16899.6015625 18624.80078125 16899.6015625 C 18624.80078125 16899.6015625 18621.69921875 16899.69921875 18620.19921875 16900.1015625 C 18619.8984375 16900.19921875 18619.599609375 16900.19921875 18619.30078125 16900.19921875 C 18617.701171875 16900.19921875 18615.3984375 16899.302734375 18615.998046875 16896.701171875 C 18616.69921875 16893.501953125 18619.697265625 16893.697265625 18620.498046875 16889.3984375 C 18621.19921875 16885.6015625 18624.099609375 16885.400390625 18624.69921875 16885.400390625 L 18624.80078125 16885.400390625 L 18624.900390625 16885.400390625 C 18625.498046875 16885.400390625 18628.3984375 16885.6015625 18629.099609375 16889.3984375 C 18629.900390625 16893.599609375 18632.8984375 16893.501953125 18633.599609375 16896.701171875 C 18634.19921875 16899.302734375 18631.90234375 16900.19921875 18630.302734375 16900.19921875 Z M 18634.498046875 16891.701171875 C 18634.1015625 16891.701171875 18633.80078125 16891.59765625 18633.3984375 16891.5 C 18631.59765625 16890.802734375 18630.900390625 16888.40234375 18631.798828125 16886.1015625 C 18632.501953125 16884.30078125 18634.1015625 16883.09765625 18635.59765625 16883.09765625 C 18636 16883.09765625 18636.298828125 16883.201171875 18636.697265625 16883.298828125 C 18638.498046875 16884 18639.19921875 16886.400390625 18638.30078125 16888.697265625 C 18637.599609375 16890.498046875 18636 16891.701171875 18634.498046875 16891.701171875 Z M 18614.697265625 16891.701171875 C 18613.201171875 16891.701171875 18611.6015625 16890.498046875 18610.8984375 16888.697265625 C 18610 16886.400390625 18610.697265625 16884 18612.498046875 16883.298828125 C 18612.802734375 16883.201171875 18613.201171875 16883.09765625 18613.59765625 16883.09765625 C 18615.099609375 16883.09765625 18616.69921875 16884.30078125 18617.400390625 16886.1015625 C 18618.298828125 16888.40234375 18617.59765625 16890.802734375 18615.80078125 16891.5 C 18615.3984375 16891.59765625 18615.001953125 16891.701171875 18614.697265625 16891.701171875 Z M 18629.099609375 16884.30078125 C 18628.80078125 16884.30078125 18628.599609375 16884.30078125 18628.30078125 16884.197265625 C 18626.400390625 16883.701171875 18625.400390625 16881.302734375 18626.1015625 16879 C 18626.701171875 16876.998046875 18628.501953125 16875.599609375 18630.1015625 16875.599609375 C 18630.302734375 16875.599609375 18630.59765625 16875.599609375 18630.802734375 16875.697265625 C 18632.501953125 16876.19921875 18633.69921875 16878.59765625 18633.001953125 16880.900390625 C 18632.30078125 16882.90234375 18630.701171875 16884.30078125 18629.099609375 16884.30078125 Z M 18620.19921875 16884.30078125 C 18618.599609375 16884.30078125 18616.998046875 16882.90234375 18616.400390625 16880.900390625 C 18615.69921875 16878.59765625 18616.69921875 16876.19921875 18618.5 16875.697265625 C 18618.80078125 16875.599609375 18619 16875.599609375 18619.30078125 16875.599609375 C 18620.900390625 16875.599609375 18622.5 16876.998046875 18623.099609375 16879 C 18623.80078125 16881.302734375 18622.798828125 16883.701171875 18620.998046875 16884.197265625 C 18620.69921875 16884.197265625 18620.400390625 16884.30078125 18620.19921875 16884.30078125 Z" stroke="none" fill="#fff"/>
  </g>
</svg>
