<svg id="安全设置" xmlns="http://www.w3.org/2000/svg" width="37.89" height="44" viewBox="0 0 37.89 44">
  <path id="路径_91" data-name="路径 91" d="M269.927,289l-.578-.258c-.668-.3-18.368-7.438-18.368-16.822V251.162L269.927,245l18.944,6.162V271.92c0,9.384-17.7,16.522-18.368,16.822Z" transform="translate(-250.981 -245)" fill="#6fbfee"/>
  <path id="路径_92" data-name="路径 92" d="M263.709,266.919h3.62a.778.778,0,0,0,.778-.776.778.778,0,0,0-.778-.778h-3.62v-2.99a6.675,6.675,0,1,0-1.554-.2v12.214a.777.777,0,1,0,1.554,0v-3.972h3.62a.778.778,0,0,0,.778-.776.778.778,0,0,0-.778-.778h-3.62Zm3.62-7.574a5.053,5.053,0,1,1,0-7.146A5.055,5.055,0,0,1,267.329,259.345Z" transform="translate(-244.811 -240.167)" fill="#fff" stroke="#fff" stroke-width="0.4"/>
</svg>
