<svg xmlns="http://www.w3.org/2000/svg" width="47" height="46.948" viewBox="0 0 47 46.948">
  <g id="充值" transform="translate(1)">
    <path id="路径_38" data-name="路径 38" d="M-18.389,93.834V121a2,2,0,0,1-2,2h-36a2,2,0,0,1-2-2V85a2,2,0,0,1,2-2h26.612" transform="translate(58.389 -77.052)" fill="none" stroke="#000" stroke-linecap="round" stroke-miterlimit="10" stroke-width="2"/>
    <path id="路径_114" data-name="路径 114" d="M-228.609,259.977h-2.013a2.083,2.083,0,0,1-2.08-2.08,2.081,2.081,0,0,1,2.08-2.08h4.027a.942.942,0,0,0,.94-.94.94.94,0,0,0-.94-.94h-2.08v-2.08a.94.94,0,0,0-.94-.94.939.939,0,0,0-.94.94v2.08h-.067a3.963,3.963,0,0,0-3.96,3.96,3.965,3.965,0,0,0,3.96,3.96h2.013a2.083,2.083,0,0,1,2.08,2.08,2.083,2.083,0,0,1-2.08,2.08h-4.027a.939.939,0,0,0-.94.94.94.94,0,0,0,.94.94h2.08v2.08a.94.94,0,0,0,.94.94.942.942,0,0,0,.94-.94V267.9h.067a3.966,3.966,0,0,0,3.96-3.96A3.965,3.965,0,0,0-228.609,259.977Z" transform="translate(249.582 -234.917)" fill="#ff8099" stroke="#ff8099" stroke-miterlimit="10" stroke-width="0.2"/>
    <line id="直线_40" data-name="直线 40" y2="10" transform="translate(40 1)" fill="none" stroke="#000" stroke-linecap="round" stroke-width="2"/>
    <line id="直线_41" data-name="直线 41" y2="10" transform="translate(45 6) rotate(90)" fill="none" stroke="#000" stroke-linecap="round" stroke-width="2"/>
  </g>
</svg>
