<svg xmlns="http://www.w3.org/2000/svg" width="48.854" height="42.62" viewBox="0 0 48.854 42.62">
  <g id="转账" transform="translate(0)">
    <path id="路径_76" data-name="路径 76" d="M212.706,307.063l-4.918-4.918a1.12,1.12,0,0,1,0-1.586l0,0v-.012a1.126,1.126,0,0,1,1.588-.012l.012.012,2.98,2.98v-21.5a4.716,4.716,0,0,1,4.714-4.716h30.5a4.764,4.764,0,0,1,4.73,4.716v3.136a1.13,1.13,0,0,1-1.126,1.134h0a1.132,1.132,0,0,1-1.136-1.132h0v-3.136a2.456,2.456,0,0,0-2.448-2.456H217.1a2.456,2.456,0,0,0-2.454,2.454h0v21.512l2.988-2.988a1.126,1.126,0,0,1,1.588-.012l.012.012a1.126,1.126,0,0,1,.022,1.59l-.01.01h-.012l-4.916,4.918a1.13,1.13,0,0,1-1.6,0l0,0Z" transform="translate(-207.458 -277.307)"/>
    <path id="路径_76-2" data-name="路径 76" d="M249.515,283.906l4.918,4.918a1.121,1.121,0,0,1,0,1.586v.014a1.127,1.127,0,0,1-1.588.012l-.012-.012-2.98-2.98v21.5a4.72,4.72,0,0,1-4.714,4.716h-30.5a4.763,4.763,0,0,1-4.73-4.716V305.81a1.129,1.129,0,0,1,1.126-1.134h0a1.134,1.134,0,0,1,1.136,1.132h0v3.136a2.454,2.454,0,0,0,2.448,2.456h30.5a2.458,2.458,0,0,0,2.454-2.454h0V287.434l-2.988,2.988a1.126,1.126,0,0,1-1.588.012l-.012-.012a1.125,1.125,0,0,1-.024-1.59l.012-.01h.012l4.916-4.918a1.129,1.129,0,0,1,1.6,0l0,0Z" transform="translate(-205.907 -271.042)"/>
    <path id="路径_114" data-name="路径 114" d="M-228.609,259.977h-2.013a2.083,2.083,0,0,1-2.08-2.08,2.081,2.081,0,0,1,2.08-2.08h4.027a.942.942,0,0,0,.94-.94.94.94,0,0,0-.94-.94h-2.08v-2.08a.94.94,0,0,0-.94-.94.939.939,0,0,0-.94.94v2.08h-.067a3.963,3.963,0,0,0-3.96,3.96,3.965,3.965,0,0,0,3.96,3.96h2.013a2.083,2.083,0,0,1,2.08,2.08,2.083,2.083,0,0,1-2.08,2.08h-4.027a.939.939,0,0,0-.94.94.94.94,0,0,0,.94.94h2.08v2.08a.94.94,0,0,0,.94.94.942.942,0,0,0,.94-.94V267.9h.067a3.966,3.966,0,0,0,3.96-3.96A3.965,3.965,0,0,0-228.609,259.977Z" transform="translate(254.582 -239.117)" fill="#6fbfee" stroke="#6fbfee" stroke-miterlimit="10" stroke-width="0.2"/>
  </g>
</svg>
