<?xml version="1.0" encoding="utf-8"?>
<!-- Generator: Adobe Illustrator 23.0.0, SVG Export Plug-In . SVG Version: 6.00 Build 0)  -->
<svg version="1.1" id="图层_1" xmlns="http://www.w3.org/2000/svg" xmlns:xlink="http://www.w3.org/1999/xlink" x="0px" y="0px"
	 viewBox="0 0 38 32" style="enable-background:new 0 0 38 32;" xml:space="preserve">
<style type="text/css">
	.st0{fill:#FFFFFF;}
	.st1{fill:none;}
	.st2{fill:none;stroke:#000000;stroke-width:2;}
</style>
<g id="路径_165">
	<path class="st0" d="M2,0h34c1.1,0,2,0.9,2,2v28c0,1.1-0.9,2-2,2H2c-1.1,0-2-0.9-2-2V2C0,0.9,0.9,0,2,0z"/>
	<path d="M2,2v28h34V2H2 M2,0h34c1.1,0,2,0.9,2,2v28c0,1.1-0.9,2-2,2H2c-1.1,0-2-0.9-2-2V2C0,0.9,0.9,0,2,0z"/>
</g>
<g id="矩形_38" transform="translate(22 14)">
	<path class="st1" d="M0,0h8c1.1,0,2,0.9,2,2l0,0c0,1.1-0.9,2-2,2H0c-1.1,0-2-0.9-2-2l0,0C-2,0.9-1.1,0,0,0z"/>
	<path class="st2" d="M0,1h8c0.6,0,1,0.4,1,1l0,0c0,0.6-0.4,1-1,1H0c-0.6,0-1-0.4-1-1l0,0C-1,1.4-0.6,1,0,1z"/>
</g>
</svg>
