<svg xmlns="http://www.w3.org/2000/svg" width="46" height="42" viewBox="0 0 46 42">
  <g id="提现" transform="translate(1 1)">
    <g id="_1" data-name=" 1" transform="translate(6 8)">
      <path id="路径_38" data-name="路径 38" d="M270,267.014v31.5a.5.5,0,0,1-.5.5h-31a.5.5,0,0,1-.5-.5v-31.5" transform="translate(-238 -267.014)" fill="none" stroke="#000" stroke-linecap="round" stroke-miterlimit="10" stroke-width="2"/>
      <path id="路径_114" data-name="路径 114" d="M-228.609,259.977h-2.013a2.083,2.083,0,0,1-2.08-2.08,2.081,2.081,0,0,1,2.08-2.08h4.027a.942.942,0,0,0,.94-.94.94.94,0,0,0-.94-.94h-2.08v-2.08a.94.94,0,0,0-.94-.94.939.939,0,0,0-.94.94v2.08h-.067a3.963,3.963,0,0,0-3.96,3.96,3.965,3.965,0,0,0,3.96,3.96h2.013a2.083,2.083,0,0,1,2.08,2.08,2.083,2.083,0,0,1-2.08,2.08h-4.027a.939.939,0,0,0-.94.94.94.94,0,0,0,.94.94h2.08v2.08a.94.94,0,0,0,.94.94.942.942,0,0,0,.94-.94V267.9h.067a3.966,3.966,0,0,0,3.96-3.96A3.965,3.965,0,0,0-228.609,259.977Z" transform="translate(245.582 -246.917)" fill="#67d4cd" stroke="#67d4cd" stroke-miterlimit="10" stroke-width="0.2"/>
    </g>
    <path id="路径_38-2" data-name="路径 38" d="M277,275.014h1.5a.5.5,0,0,0,.5-.5v-11a.5.5,0,0,0-.5-.5h-43a.5.5,0,0,0-.5.5v11a.5.5,0,0,0,.5.5H237" transform="translate(-235 -263.014)" fill="none" stroke="#000" stroke-linecap="round" stroke-miterlimit="10" stroke-width="2"/>
  </g>
</svg>
