<?xml version="1.0" encoding="utf-8"?>
<!-- Generator: Adobe Illustrator 23.0.0, SVG Export Plug-In . SVG Version: 6.00 Build 0)  -->
<svg version="1.1" id="图层_1" xmlns="http://www.w3.org/2000/svg" xmlns:xlink="http://www.w3.org/1999/xlink" x="0px" y="0px"
	 viewBox="0 0 24 21.1" style="enable-background:new 0 0 24 21.1;" xml:space="preserve">
<style type="text/css">
	.st0{fill:#FFE941;stroke:#000000;stroke-miterlimit:10;}
</style>
<path class="st0" d="M12.6,20.1c-0.4,0.4-1,0.4-1.4,0l-8.9-8.8c-1.2-1.2-1.8-2.7-1.8-4.4c0-1.6,0.6-3.2,1.8-4.3
	C3.5,1.4,5,0.8,6.6,0.8c0.3,0,0.7,0,1,0.1c1.3,0.2,2.5,0.8,3.5,1.8l0,0c0.2,0.2,0.5,0.4,0.9,0.4c0.3,0,0.6-0.1,0.9-0.4
	C14,1.6,15.2,1,16.5,0.8c0.3,0,0.6-0.1,0.9-0.1c1.6,0,3.2,0.6,4.3,1.8c1.2,1.2,1.8,2.7,1.8,4.3s-0.6,3.2-1.8,4.3L12.6,20.1z"/>
</svg>
