<svg xmlns="http://www.w3.org/2000/svg" width="180" height="174.682" viewBox="0 0 180 174.682">
  <path id="暂无数据" d="M179.677,33.436,158.706,8.969,179.677-15.5a1.326,1.326,0,0,0,.3-1.105,1.324,1.324,0,0,0-.664-.927L114.171-53.718a1.346,1.346,0,0,0-1.589.222L91.719-32.815,71.04-53.5a1.327,1.327,0,0,0-.945-.391,1.315,1.315,0,0,0-.664.178L.666-13.9a1.348,1.348,0,0,0-.661,1.036,1.335,1.335,0,0,0,.462,1.131l24.386,20.9L3.888,37.12a1.334,1.334,0,0,0,.42,1.966L25.431,50.823l-.376,1.189a2.1,2.1,0,0,0-.1.384v26.46a8.34,8.34,0,0,0,4.15,7.191l58.2,33.6a8.653,8.653,0,0,0,4.315,1.15l.109-.01a8.724,8.724,0,0,0,4.21-1.141l58.024-33.5a8.687,8.687,0,0,0,4.324-7.494V48.321l21.075-12.879a1.335,1.335,0,0,0,.318-2ZM3.634-12.531,69.877-50.884l19.79,19.791L26.8,7.325ZM6.943,37.5,27.037,10.7l.387.214,62.269,34.6L69.722,72.375l-.389-.216ZM90.38,118.34,30.438,83.734a5.656,5.656,0,0,1-2.815-4.878V52.041L69.449,75.277a1.37,1.37,0,0,0,1.717-.369L90.38,49.064Zm0-75.5L29.318,8.916,90.38-28.4ZM113.751-50.9l.334.185,62.5,34.719L156.679,7.238l-62.838-38.4Zm-20.7,22.38L154.3,8.916l-.762.424-60.491,33.6ZM155.617,78.652a6.011,6.011,0,0,1-2.99,5.183l-59.578,34.4v-69.2l19.407,25.875a1.364,1.364,0,0,0,1.765.338l41.395-25.3Zm20.506-44.36L113.865,72.339,93.794,45.583l.51-.284,62.344-34.636L176.632,33.98Z" transform="translate(0 53.886)" fill="#d9d9d9"/>
</svg>
