<svg xmlns="http://www.w3.org/2000/svg" width="33.5" height="38.009" viewBox="0 0 33.5 38.009">
  <g id="向好友转账" transform="translate(-763.867 -39.024)">
    <path id="路径_140" data-name="路径 140" d="M778.068,52.42a6.2,6.2,0,1,0-6.2-6.2,6.2,6.2,0,0,0,6.2,6.2Z" fill="none" stroke="#000" stroke-miterlimit="10" stroke-width="2"/>
    <path id="路径_141" data-name="路径 141" d="M791.268,68.165a.689.689,0,0,1-.465.631l-11.8,7.051a2.6,2.6,0,0,1-1.884,0L765.333,68.8a.694.694,0,0,1-.466-.631V60.618a6.531,6.531,0,0,1,6.2-6.158,1.051,1.051,0,0,1,.8.246l5.662,5.023a.841.841,0,0,0,1.1,0l5.663-5.023a1.064,1.064,0,0,1,.808-.246,7.563,7.563,0,0,1,2.892.9,6.716,6.716,0,0,1,1.531,1.149,5.778,5.778,0,0,1,1.752,4.107Z" fill="none" stroke="#000" stroke-miterlimit="10" stroke-width="2"/>
    <line id="直线_43" data-name="直线 43" x2="8" transform="translate(788.367 41.422)" fill="none" stroke="#000" stroke-linecap="round" stroke-miterlimit="10" stroke-width="2"/>
    <line id="直线_44" data-name="直线 44" x2="4" transform="translate(792.367 46.222)" fill="none" stroke="#000" stroke-linecap="round" stroke-miterlimit="10" stroke-width="2"/>
    <line id="直线_45" data-name="直线 45" x2="4" transform="translate(792.367 51.022)" fill="none" stroke="#000" stroke-linecap="round" stroke-miterlimit="10" stroke-width="2"/>
  </g>
</svg>
