<svg id="π" xmlns="http://www.w3.org/2000/svg" width="40" height="40" viewBox="0 0 40 40">
  <rect id="矩形_41" data-name="矩形 41" width="40" height="40" rx="20" fill="#e9c47f"/>
  <path id="路径_106" data-name="路径 106" d="M20.5-10.439l-.348,1.418H17.541L15.039.236a6.2,6.2,0,0,0-.264,1.487q0,1.056,1.2,1.056.292,0,.917-.07l-.4,1.362a8.077,8.077,0,0,1-.945.07q-2.558,0-2.558-2.252A7.644,7.644,0,0,1,13.3-.055l2.474-8.966h-5.7L6.323,3.8H4.5L8.38-9.022H5.642l.4-1.418Z" transform="translate(7.498 24.439)"/>
</svg>
